<svg height="511pt" viewBox="-30 0 511 511.999" width="511pt" xmlns="http://www.w3.org/2000/svg"><path d="m285.410156 511.921875c-8.285156 0-15-6.710937-15-14.992187v-120.210938c0-25.394531-20.550781-46.597656-45.921875-46.058594-24.300781.488282-44.066406 20.703125-44.066406 45.0625v121.207032c0 8.28125-6.714844 14.992187-15 14.992187-30.585937 0-31.601563.695313-36.382813-2.351563-65.042968-41.476562-102.15625-118.53125-96.851562-201.089843 2.46875-38.34375-4.5-78.355469-20.15625-115.71875-49.8125-118.746094 71.394531-238.75 179-174.976563 21.515625 12.738282 48.253906 12.738282 69.777344-.003906 108.148437-64.09375 229.722656 57.347656 178.429687 176.324219-15.621093 36.207031-22.699219 76.464843-20.464843 116.433593 4.625 84.332032-34.347657 159.316407-93.171876 198.832032-4.917968 3.308594-5.699218 2.550781-40.191406 2.550781zm0 0" fill="#eee"/><path d="m264.5625 15.644531c-4.953125 2.710938-18.347656 12-39.636719 11.671875v303.339844c25.175781-.28125 45.484375 20.820312 45.484375 46.058594v120.21875c0 8.277344 6.71875 14.992187 15 14.992187 34.496094 0 35.273438.75 40.195313-2.546875 58.824219-39.523437 97.789062-114.503906 93.167969-198.84375-2.238282-39.96875 4.839843-80.230468 20.46875-116.429687 50.785156-117.828125-67.953126-237.71875-174.679688-178.460938zm0 0" fill="#dedede"/><path d="m196.175781 150.722656c83.132813 16.179688 163.671875-36.984375 181.992188-119.226562l-.046875-17.550782c-36.847656-19.390624-79.652344-18.484374-117.3125 3.835938-21.523438 12.742188-48.261719 12.742188-69.777344.003906-37.625-22.300781-80.472656-23.207031-117.339844-3.816406l-.0625 17.335938c13.082032 58.796874 59.714844 107.191406 122.546875 119.417968zm0 0" fill="#ddd"/><path d="m378.167969 31.496094c-16.1875 72.691406-81 122.667968-153.242188 122.117187v-126.296875c21.507813.332032 34.230469-8.875 41.515625-12.691406 30.820313-17.550781 73.699219-20.671875 111.679688-.679688zm0 0" fill="#cecece"/></svg>